<svg viewBox="0 0 30 30" fill="none" xmlns="http://www.w3.org/2000/svg">
<path d="M15.0013 -2.41994e-05C6.78405 -2.49178e-05 2.02856e-06 6.79331 1.31123e-06 14.9987C5.92855e-07 23.2159 6.79594 29.9974 15.0132 29.9974C23.2159 29.9974 30 23.2159 30 14.9987C30 6.79332 23.204 -2.34823e-05 15.0013 -2.41994e-05Z" fill="#23252D"/>
<path d="M12.0663 7.7485C12.4908 7.3385 13.3556 7.36228 13.817 7.78939L19.8025 13.4305C20.7008 14.2561 20.7007 15.7148 19.8025 16.5404L13.817 22.1789C13.3068 22.6548 12.55 22.6589 12.086 22.2198C11.5705 21.7412 11.5586 20.9133 12.057 20.4493L17.8705 14.9987L12.057 9.5217C11.5757 9.05768 11.5508 8.26654 12.0663 7.7485Z" fill="white"/>
</svg>
