<svg viewBox="0 0 12 12" fill="none" xmlns="http://www.w3.org/2000/svg">
<path d="M6 12C9.28719 12 12.001 9.28243 12.001 6C12.001 2.71282 9.28243 0 5.99524 0C2.71387 0 0 2.71282 0 6C0 9.28243 2.71863 12 6 12Z" fill="#20C997"/>
<path d="M5.35209 8.8668C5.13372 8.8668 4.95436 8.77189 4.79186 8.5613L3.36853 6.8299C3.26469 6.69703 3.21137 6.56296 3.21137 6.41581C3.21137 6.11993 3.44601 5.87995 3.74082 5.87995C3.92494 5.87995 4.06422 5.94165 4.2136 6.13331L5.33305 7.55465L7.73468 3.70938C7.86071 3.51109 8.02531 3.40666 8.20349 3.40666C8.49357 3.40666 8.75992 3.61017 8.75992 3.91451C8.75992 4.04856 8.68964 4.19051 8.60846 4.32398L5.89122 8.55714C5.75775 8.76029 5.56941 8.8668 5.35209 8.8668Z" fill="#23252D"/>
</svg>
